ffmpeg started on 2025-05-12 at 16:59:58
Report written to "D:\Convert\FFMetrics\reports\psnr_report-6.txt"
Log level: 32
Command line:
ffmpeg -hide_banner -nostdin -i "G:\\\xc0\xed\xe8\xec\xe5\\\xce\xed\xe3\xee\xe8\xed\xe3\xe8\\!_35_\xcb\xe5\xf2\xee_2024\\DreamCast\\\xce\xef\xe5\xf0\xe0\xf6\xe8\xff - \xd1\xe5\xec\xe5\xe9\xea\xe0 \xa8\xe4\xe7\xe0\xea\xf3\xf0\xe0\\[DC] Yozakura-san Chi no Daisakusen - 03_Telegram_HEVC.mkv" -i "G:\\\xc0\xed\xe8\xec\xe5\\\xce\xed\xe3\xee\xe8\xed\xe3\xe8\\!_35_\xcb\xe5\xf2\xee_2024\\DreamCast\\\xce\xef\xe5\xf0\xe0\xf6\xe8\xff - \xd1\xe5\xec\xe5\xe9\xea\xe0 \xa8\xe4\xe7\xe0\xea\xf3\xf0\xe0\\[DC] Yozakura-san Chi no Daisakusen - 03_Telegram.mp4" -lavfi "[0:v]settb=AVTB,setpts=PTS-STARTPTS,format=pix_fmts=yuv420p10,fps=24000/1001,scale=1920:1080:flags=bicubic[main];[1:v]settb=AVTB,setpts=PTS-STARTPTS,format=pix_fmts=yuv420p,fps=24000/1001,scale=1920:1080:flags=bicubic[ref];[main][ref]psnr=eof_action=endall:stats_file='D\\:/Convert/FFMetrics/logs/psnr_logfile-6.txt'" -f null -
Input #0, matroska,webm, from 'G:\Аниме\Онгоинги\!_35_Лето_2024\DreamCast\Операция - Семейка Ёдзакура\[DC] Yozakura-san Chi no Daisakusen - 03_Telegram_HEVC.mkv':
  Metadata:
    COMPATIBLE_BRANDS: isomiso2avc1mp41
    MAJOR_BRAND     : isom
    MINOR_VERSION   : 512
    ENCODER         : Lavf61.7.100
  Duration: 00:24:21.51, start: -0.021000, bitrate: 1620 kb/s
  Stream #0:0: Video: hevc (Main 10), yuv420p10le(tv, bt709, progressive), 1920x1080 [SAR 1:1 DAR 16:9], 23.98 fps, 23.98 tbr, 1k tbn (default)
      Metadata:
        HANDLER_NAME    : VideoHandler
        VENDOR_ID       : [0][0][0][0]
        ENCODER         : Lavc61.19.100 libx265
        BPS             : 1423579
        DURATION        : 00:24:21.418708333
        NUMBER_OF_FRAMES: 35039
        NUMBER_OF_BYTES : 260055659
        _STATISTICS_WRITING_APP: mkvpropedit v66.0.0 ('Josie') 64-bit
        _STATISTICS_WRITING_DATE_UTC: 2025-05-08 12:47:12
        _STATISTICS_TAGS: BPS DURATION NUMBER_OF_FRAMES NUMBER_OF_BYTES
  Stream #0:1: Audio: aac (LC), 48000 Hz, stereo, fltp (default)
      Metadata:
        HANDLER_NAME    : SoundHandler
        VENDOR_ID       : [0][0][0][0]
        ENCODER         : Lavc61.19.100 aac
        BPS             : 193408
        DURATION        : 00:24:21.504000000
        NUMBER_OF_FRAMES: 68509
        NUMBER_OF_BYTES : 35333449
        _STATISTICS_WRITING_APP: mkvpropedit v66.0.0 ('Josie') 64-bit
        _STATISTICS_WRITING_DATE_UTC: 2025-05-08 12:47:12
        _STATISTICS_TAGS: BPS DURATION NUMBER_OF_FRAMES NUMBER_OF_BYTES
Input #1, mov,mp4,m4a,3gp,3g2,mj2, from 'G:\Аниме\Онгоинги\!_35_Лето_2024\DreamCast\Операция - Семейка Ёдзакура\[DC] Yozakura-san Chi no Daisakusen - 03_Telegram.mp4':
  Metadata:
    major_brand     : isom
    minor_version   : 512
    compatible_brands: isomiso2avc1mp41
    encoder         : Lavf60.16.100
  Duration: 00:24:21.48, start: 0.000000, bitrate: 3945 kb/s
  Stream #1:0[0x1](und): Video: h264 (High) (avc1 / 0x31637661), yuv420p(tv, bt709, progressive), 1920x1080 [SAR 1:1 DAR 16:9], 3797 kb/s, 23.98 fps, 23.98 tbr, 24k tbn (default)
      Metadata:
        handler_name    : VideoHandler
        vendor_id       : [0][0][0][0]
        encoder         : Lavc60.31.102 h264_qsv
  Stream #1:1[0x2](und): Audio: aac (HE-AACv2) (mp4a / 0x6134706D), 48000 Hz, stereo, fltp, 144 kb/s (default)
      Metadata:
        handler_name    : SoundHandler
        vendor_id       : [0][0][0][0]
Stream mapping:
  Stream #0:0 (hevc) -> settb:default
  Stream #1:0 (h264) -> settb:default
  psnr:default -> Stream #0:0 (wrapped_avframe)
  Stream #0:1 -> #0:1 (aac (native) -> pcm_s16le (native))
Output #0, null, to 'pipe:':
  Metadata:
    COMPATIBLE_BRANDS: isomiso2avc1mp41
    MAJOR_BRAND     : isom
    MINOR_VERSION   : 512
    encoder         : Lavf61.7.100
  Stream #0:0: Video: wrapped_avframe, yuv420p10le(tv, bt709, progressive), 1920x1080 [SAR 1:1 DAR 16:9], q=2-31, 200 kb/s, 23.98 fps, 23.98 tbn
      Metadata:
        encoder         : Lavc61.19.100 wrapped_avframe
  Stream #0:1: Audio: pcm_s16le, 48000 Hz, stereo, s16, 1536 kb/s (default)
      Metadata:
        HANDLER_NAME    : SoundHandler
        VENDOR_ID       : [0][0][0][0]
        _STATISTICS_TAGS: BPS DURATION NUMBER_OF_FRAMES NUMBER_OF_BYTES
        BPS             : 193408
        DURATION        : 00:24:21.504000000
        NUMBER_OF_FRAMES: 68509
        NUMBER_OF_BYTES : 35333449
        _STATISTICS_WRITING_APP: mkvpropedit v66.0.0 ('Josie') 64-bit
        _STATISTICS_WRITING_DATE_UTC: 2025-05-08 12:47:12
        encoder         : Lavc61.19.100 pcm_s16le
frame=  171 fps=0.0 q=-0.0 size=N/A time=00:00:07.13 bitrate=N/A speed=13.6x    frame=  375 fps=363 q=-0.0 size=N/A time=00:00:15.64 bitrate=N/A speed=15.1x    frame=  587 fps=377 q=-0.0 size=N/A time=00:00:24.48 bitrate=N/A speed=15.7x    frame=  782 fps=380 q=-0.0 size=N/A time=00:00:32.61 bitrate=N/A speed=15.8x    frame= 1004 fps=389 q=-0.0 size=N/A time=00:00:41.87 bitrate=N/A speed=16.2x    frame= 1252 fps=405 q=-0.0 size=N/A time=00:00:52.21 bitrate=N/A speed=16.9x    frame= 1489 fps=412 q=-0.0 size=N/A time=00:01:02.10 bitrate=N/A speed=17.2x    frame= 1674 fps=405 q=-0.0 size=N/A time=00:01:09.81 bitrate=N/A speed=16.9x    frame= 1873 fps=404 q=-0.0 size=N/A time=00:01:18.11 bitrate=N/A speed=16.8x    frame= 2097 fps=407 q=-0.0 size=N/A time=00:01:27.46 bitrate=N/A speed=  17x    frame= 2306 fps=406 q=-0.0 size=N/A time=00:01:36.17 bitrate=N/A speed=16.9x    frame= 2491 fps=403 q=-0.0 size=N/A time=00:01:43.89 bitrate=N/A speed=16.8x    frame= 2680 fps=400 q=-0.0 size=N/A time=00:01:51.77 bitrate=N/A speed=16.7x    frame= 2838 fps=393 q=-0.0 size=N/A time=00:01:58.36 bitrate=N/A speed=16.4x    frame= 2991 fps=387 q=-0.0 size=N/A time=00:02:04.74 bitrate=N/A speed=16.1x    frame= 3165 fps=384 q=-0.0 size=N/A time=00:02:12.00 bitrate=N/A speed=  16x    frame= 3360 fps=383 q=-0.0 size=N/A time=00:02:20.14 bitrate=N/A speed=  16x    frame= 3555 fps=383 q=-0.0 size=N/A time=00:02:28.27 bitrate=N/A speed=  16x    frame= 3736 fps=382 q=-0.0 size=N/A time=00:02:35.82 bitrate=N/A speed=15.9x    frame= 3951 fps=383 q=-0.0 size=N/A time=00:02:44.78 bitrate=N/A speed=  16x    frame= 4227 fps=390 q=-0.0 size=N/A time=00:02:56.30 bitrate=N/A speed=16.3x    frame= 4473 fps=394 q=-0.0 size=N/A time=00:03:06.56 bitrate=N/A speed=16.4x    frame= 4720 fps=398 q=-0.0 size=N/A time=00:03:16.86 bitrate=N/A speed=16.6x    frame= 4967 fps=402 q=-0.0 size=N/A time=00:03:27.16 bitrate=N/A speed=16.7x    frame= 5218 fps=405 q=-0.0 size=N/A time=00:03:37.63 bitrate=N/A speed=16.9x    frame= 5444 fps=406 q=-0.0 size=N/A time=00:03:47.06 bitrate=N/A speed=16.9x    frame= 5666 fps=406 q=-0.0 size=N/A time=00:03:56.31 bitrate=N/A speed=  17x    frame= 5919 fps=410 q=-0.0 size=N/A time=00:04:06.87 bitrate=N/A speed=17.1x    frame= 6180 fps=413 q=-0.0 size=N/A time=00:04:17.75 bitrate=N/A speed=17.2x    frame= 6421 fps=414 q=-0.0 size=N/A time=00:04:27.80 bitrate=N/A speed=17.3x    frame= 6658 fps=416 q=-0.0 size=N/A time=00:04:37.69 bitrate=N/A speed=17.4x    frame= 6866 fps=416 q=-0.0 size=N/A time=00:04:46.36 bitrate=N/A speed=17.3x    frame= 7074 fps=415 q=-0.0 size=N/A time=00:04:55.04 bitrate=N/A speed=17.3x    frame= 7243 fps=413 q=-0.0 size=N/A time=00:05:02.09 bitrate=N/A speed=17.2x    frame= 7486 fps=414 q=-0.0 size=N/A time=00:05:12.22 bitrate=N/A speed=17.3x    frame= 7726 fps=416 q=-0.0 size=N/A time=00:05:22.23 bitrate=N/A speed=17.3x    frame= 7983 fps=418 q=-0.0 size=N/A time=00:05:32.95 bitrate=N/A speed=17.4x    frame= 8249 fps=421 q=-0.0 size=N/A time=00:05:44.05 bitrate=N/A speed=17.5x    frame= 8484 fps=422 q=-0.0 size=N/A time=00:05:53.85 bitrate=N/A speed=17.6x    frame= 8714 fps=422 q=-0.0 size=N/A time=00:06:03.44 bitrate=N/A speed=17.6x    frame= 8948 fps=423 q=-0.0 size=N/A time=00:06:13.20 bitrate=N/A speed=17.6x    frame= 9171 fps=423 q=-0.0 size=N/A time=00:06:22.50 bitrate=N/A speed=17.6x    frame= 9386 fps=423 q=-0.0 size=N/A time=00:06:31.47 bitrate=N/A speed=17.6x    frame= 9625 fps=424 q=-0.0 size=N/A time=00:06:41.44 bitrate=N/A speed=17.7x    frame= 9844 fps=424 q=-0.0 size=N/A time=00:06:50.57 bitrate=N/A speed=17.7x    frame=10048 fps=423 q=-0.0 size=N/A time=00:06:59.08 bitrate=N/A speed=17.7x    frame=10296 fps=425 q=-0.0 size=N/A time=00:07:09.42 bitrate=N/A speed=17.7x    frame=10515 fps=424 q=-0.0 size=N/A time=00:07:18.56 bitrate=N/A speed=17.7x    frame=10768 fps=426 q=-0.0 size=N/A time=00:07:29.11 bitrate=N/A speed=17.8x    frame=11006 fps=427 q=-0.0 size=N/A time=00:07:39.04 bitrate=N/A speed=17.8x    frame=11207 fps=426 q=-0.0 size=N/A time=00:07:47.42 bitrate=N/A speed=17.8x    frame=11457 fps=427 q=-0.0 size=N/A time=00:07:57.85 bitrate=N/A speed=17.8x    frame=11709 fps=428 q=-0.0 size=N/A time=00:08:08.36 bitrate=N/A speed=17.9x    frame=11946 fps=429 q=-0.0 size=N/A time=00:08:18.24 bitrate=N/A speed=17.9x    frame=12178 fps=429 q=-0.0 size=N/A time=00:08:27.92 bitrate=N/A speed=17.9x    frame=12397 fps=429 q=-0.0 size=N/A time=00:08:37.05 bitrate=N/A speed=17.9x    frame=12656 fps=430 q=-0.0 size=N/A time=00:08:47.86 bitrate=N/A speed=17.9x    frame=12892 fps=431 q=-0.0 size=N/A time=00:08:57.70 bitrate=N/A speed=  18x    frame=13157 fps=432 q=-0.0 size=N/A time=00:09:08.75 bitrate=N/A speed=  18x    frame=13388 fps=433 q=-0.0 size=N/A time=00:09:18.39 bitrate=N/A speed=  18x    frame=13627 fps=433 q=-0.0 size=N/A time=00:09:28.35 bitrate=N/A speed=18.1x    frame=13862 fps=433 q=-0.0 size=N/A time=00:09:38.16 bitrate=N/A speed=18.1x    frame=14117 fps=434 q=-0.0 size=N/A time=00:09:48.79 bitrate=N/A speed=18.1x    frame=14320 fps=434 q=-0.0 size=N/A time=00:09:57.26 bitrate=N/A speed=18.1x    frame=14553 fps=434 q=-0.0 size=N/A time=00:10:06.98 bitrate=N/A speed=18.1x    frame=14761 fps=434 q=-0.0 size=N/A time=00:10:15.65 bitrate=N/A speed=18.1x    frame=14988 fps=434 q=-0.0 size=N/A time=00:10:25.12 bitrate=N/A speed=18.1x    frame=15219 fps=434 q=-0.0 size=N/A time=00:10:34.75 bitrate=N/A speed=18.1x    frame=15487 fps=435 q=-0.0 size=N/A time=00:10:45.93 bitrate=N/A speed=18.1x    frame=15722 fps=435 q=-0.0 size=N/A time=00:10:55.73 bitrate=N/A speed=18.1x    frame=15960 fps=436 q=-0.0 size=N/A time=00:11:05.66 bitrate=N/A speed=18.2x    frame=16198 fps=436 q=-0.0 size=N/A time=00:11:15.59 bitrate=N/A speed=18.2x    frame=16415 fps=436 q=-0.0 size=N/A time=00:11:24.64 bitrate=N/A speed=18.2x    frame=16671 fps=436 q=-0.0 size=N/A time=00:11:35.31 bitrate=N/A speed=18.2x    frame=16934 fps=437 q=-0.0 size=N/A time=00:11:46.28 bitrate=N/A speed=18.2x    frame=17188 fps=438 q=-0.0 size=N/A time=00:11:56.88 bitrate=N/A speed=18.3x    frame=17446 fps=439 q=-0.0 size=N/A time=00:12:07.64 bitrate=N/A speed=18.3x    frame=17702 fps=439 q=-0.0 size=N/A time=00:12:18.32 bitrate=N/A speed=18.3x    frame=17859 fps=438 q=-0.0 size=N/A time=00:12:24.86 bitrate=N/A speed=18.3x    frame=18098 fps=438 q=-0.0 size=N/A time=00:12:34.83 bitrate=N/A speed=18.3x    frame=18323 fps=438 q=-0.0 size=N/A time=00:12:44.22 bitrate=N/A speed=18.3x    frame=18531 fps=438 q=-0.0 size=N/A time=00:12:52.89 bitrate=N/A speed=18.2x    frame=18708 fps=436 q=-0.0 size=N/A time=00:13:00.27 bitrate=N/A speed=18.2x    frame=18940 fps=437 q=-0.0 size=N/A time=00:13:09.95 bitrate=N/A speed=18.2x    frame=19198 fps=437 q=-0.0 size=N/A time=00:13:20.71 bitrate=N/A speed=18.2x    frame=19428 fps=437 q=-0.0 size=N/A time=00:13:30.30 bitrate=N/A speed=18.2x    frame=19654 fps=438 q=-0.0 size=N/A time=00:13:39.73 bitrate=N/A speed=18.2x    frame=19903 fps=438 q=-0.0 size=N/A time=00:13:50.12 bitrate=N/A speed=18.3x    frame=20158 fps=439 q=-0.0 size=N/A time=00:14:00.75 bitrate=N/A speed=18.3x    frame=20429 fps=440 q=-0.0 size=N/A time=00:14:12.05 bitrate=N/A speed=18.3x    frame=20657 fps=440 q=-0.0 size=N/A time=00:14:21.56 bitrate=N/A speed=18.3x    frame=20911 fps=440 q=-0.0 size=N/A time=00:14:32.16 bitrate=N/A speed=18.4x    frame=21131 fps=440 q=-0.0 size=N/A time=00:14:41.33 bitrate=N/A speed=18.4x    frame=21357 fps=440 q=-0.0 size=N/A time=00:14:50.76 bitrate=N/A speed=18.4x    frame=21577 fps=440 q=-0.0 size=N/A time=00:14:59.94 bitrate=N/A speed=18.3x    frame=21799 fps=440 q=-0.0 size=N/A time=00:15:09.19 bitrate=N/A speed=18.3x    frame=22047 fps=440 q=-0.0 size=N/A time=00:15:19.54 bitrate=N/A speed=18.4x    frame=22305 fps=441 q=-0.0 size=N/A time=00:15:30.30 bitrate=N/A speed=18.4x    frame=22575 fps=442 q=-0.0 size=N/A time=00:15:41.56 bitrate=N/A speed=18.4x    frame=22831 fps=442 q=-0.0 size=N/A time=00:15:52.24 bitrate=N/A speed=18.4x    frame=23115 fps=443 q=-0.0 size=N/A time=00:16:04.08 bitrate=N/A speed=18.5x    frame=23363 fps=444 q=-0.0 size=N/A time=00:16:14.43 bitrate=N/A speed=18.5x    frame=23612 fps=444 q=-0.0 size=N/A time=00:16:24.81 bitrate=N/A speed=18.5x    frame=23870 fps=445 q=-0.0 size=N/A time=00:16:35.57 bitrate=N/A speed=18.5x    frame=24080 fps=444 q=-0.0 size=N/A time=00:16:44.33 bitrate=N/A speed=18.5x    frame=24308 fps=444 q=-0.0 size=N/A time=00:16:53.84 bitrate=N/A speed=18.5x    frame=24544 fps=444 q=-0.0 size=N/A time=00:17:03.68 bitrate=N/A speed=18.5x    frame=24763 fps=444 q=-0.0 size=N/A time=00:17:12.82 bitrate=N/A speed=18.5x    frame=25011 fps=444 q=-0.0 size=N/A time=00:17:23.16 bitrate=N/A speed=18.5x    frame=25154 fps=443 q=-0.0 size=N/A time=00:17:29.13 bitrate=N/A speed=18.5x    frame=25392 fps=443 q=-0.0 size=N/A time=00:17:39.05 bitrate=N/A speed=18.5x    frame=25619 fps=443 q=-0.0 size=N/A time=00:17:48.52 bitrate=N/A speed=18.5x    frame=25875 fps=444 q=-0.0 size=N/A time=00:17:59.20 bitrate=N/A speed=18.5x    frame=26107 fps=444 q=-0.0 size=N/A time=00:18:08.87 bitrate=N/A speed=18.5x    frame=26357 fps=444 q=-0.0 size=N/A time=00:18:19.30 bitrate=N/A speed=18.5x    frame=26611 fps=444 q=-0.0 size=N/A time=00:18:29.90 bitrate=N/A speed=18.5x    frame=26894 fps=445 q=-0.0 size=N/A time=00:18:41.70 bitrate=N/A speed=18.6x    frame=27091 fps=445 q=-0.0 size=N/A time=00:18:49.92 bitrate=N/A speed=18.6x    frame=27322 fps=445 q=-0.0 size=N/A time=00:18:59.55 bitrate=N/A speed=18.6x    frame=27556 fps=445 q=-0.0 size=N/A time=00:19:09.31 bitrate=N/A speed=18.6x    frame=27794 fps=445 q=-0.0 size=N/A time=00:19:19.24 bitrate=N/A speed=18.6x    frame=28010 fps=445 q=-0.0 size=N/A time=00:19:28.25 bitrate=N/A speed=18.6x    frame=28219 fps=445 q=-0.0 size=N/A time=00:19:36.96 bitrate=N/A speed=18.5x    frame=28466 fps=445 q=-0.0 size=N/A time=00:19:47.26 bitrate=N/A speed=18.5x    frame=28694 fps=445 q=-0.0 size=N/A time=00:19:56.77 bitrate=N/A speed=18.6x    frame=28891 fps=444 q=-0.0 size=N/A time=00:20:04.99 bitrate=N/A speed=18.5x    frame=29135 fps=444 q=-0.0 size=N/A time=00:20:15.17 bitrate=N/A speed=18.5x    frame=29387 fps=445 q=-0.0 size=N/A time=00:20:25.68 bitrate=N/A speed=18.6x    frame=29626 fps=445 q=-0.0 size=N/A time=00:20:35.65 bitrate=N/A speed=18.6x    frame=29833 fps=445 q=-0.0 size=N/A time=00:20:44.28 bitrate=N/A speed=18.5x    frame=30093 fps=445 q=-0.0 size=N/A time=00:20:55.12 bitrate=N/A speed=18.6x    frame=30353 fps=445 q=-0.0 size=N/A time=00:21:05.97 bitrate=N/A speed=18.6x    frame=30607 fps=446 q=-0.0 size=N/A time=00:21:16.56 bitrate=N/A speed=18.6x    frame=30832 fps=446 q=-0.0 size=N/A time=00:21:25.95 bitrate=N/A speed=18.6x    frame=31052 fps=446 q=-0.0 size=N/A time=00:21:35.12 bitrate=N/A speed=18.6x    frame=31308 fps=446 q=-0.0 size=N/A time=00:21:45.80 bitrate=N/A speed=18.6x    frame=31521 fps=446 q=-0.0 size=N/A time=00:21:54.68 bitrate=N/A speed=18.6x    frame=31785 fps=446 q=-0.0 size=N/A time=00:22:05.69 bitrate=N/A speed=18.6x    frame=32035 fps=447 q=-0.0 size=N/A time=00:22:16.12 bitrate=N/A speed=18.6x    frame=32269 fps=447 q=-0.0 size=N/A time=00:22:25.88 bitrate=N/A speed=18.6x    frame=32504 fps=447 q=-0.0 size=N/A time=00:22:35.68 bitrate=N/A speed=18.6x    frame=32717 fps=446 q=-0.0 size=N/A time=00:22:44.57 bitrate=N/A speed=18.6x    frame=32941 fps=446 q=-0.0 size=N/A time=00:22:53.91 bitrate=N/A speed=18.6x    frame=33144 fps=446 q=-0.0 size=N/A time=00:23:02.38 bitrate=N/A speed=18.6x    frame=33368 fps=446 q=-0.0 size=N/A time=00:23:11.72 bitrate=N/A speed=18.6x    frame=33575 fps=446 q=-0.0 size=N/A time=00:23:20.35 bitrate=N/A speed=18.6x    frame=33763 fps=445 q=-0.0 size=N/A time=00:23:28.19 bitrate=N/A speed=18.6x    frame=33933 fps=444 q=-0.0 size=N/A time=00:23:35.28 bitrate=N/A speed=18.5x    frame=34094 fps=443 q=-0.0 size=N/A time=00:23:42.00 bitrate=N/A speed=18.5x    frame=34308 fps=443 q=-0.0 size=N/A time=00:23:50.92 bitrate=N/A speed=18.5x    frame=34461 fps=442 q=-0.0 size=N/A time=00:23:57.31 bitrate=N/A speed=18.4x    frame=34656 fps=442 q=-0.0 size=N/A time=00:24:05.44 bitrate=N/A speed=18.4x    frame=34910 fps=442 q=-0.0 size=N/A time=00:24:16.03 bitrate=N/A speed=18.4x    [Parsed_psnr_10 @ 000001fd6ee1dc00] PSNR y:46.712886 u:49.857573 v:49.447064 average:47.489450 min:39.625261 max:inf
[out#0/null @ 000001fd619eeec0] video:15056KiB audio:274036KiB subtitle:0KiB other streams:0KiB global headers:0KiB muxing overhead: unknown
frame=35039 fps=442 q=-0.0 Lsize=N/A time=00:24:21.41 bitrate=N/A speed=18.4x    
